<svg id="mindsoft-logo-color" xmlns="http://www.w3.org/2000/svg" width="234.101" height="35" viewBox="0 0 234.101 35">
  <path id="M" d="M-988.545,896.808h9.5v-4.337a11.39,11.39,0,0,1-5.966-2.367c-1.615-1.457-2.22-3.087-2.22-5.746,0-4.712,3.1-8.262,8.094-9.741h-14.4l-4.951,19.58-4.8-19.58h-14.8v33.488h9.7l-.152-23.147,6.113,23.147h7.728l6.111-23.246-.152,23.246h9.431c-5.782-1.573-9.154-5.556-9.231-11.3" transform="translate(1018.092 -873.861)" fill="#001689"/>
  <path id="S" d="M-837.62,887.445c-1.666-1.157-3.687-1.96-7.577-3.014-7.173-1.908-7.173-1.908-7.173-3.264,0-1.3,1.265-2.059,3.385-2.059,2.627,0,4.242,1.205,4.242,3.213h9.7c-.051-6.879-5.051-10.894-13.638-10.894a19.655,19.655,0,0,0-5.547.751h.092v17.859a31.622,31.622,0,0,0,4.665.318c7.518.014,8.293,2.81,7.723,5.7-.375,1.9-3.6,2.691-6.278,2.691-3.435,0-5.051-1.307-5.255-4.37h-.856v11.3h-.268a23.139,23.139,0,0,0,6.076.751c8.99,0,14.7-4.418,14.7-11.4a8.771,8.771,0,0,0-3.99-7.582" transform="translate(892.935 -871.427)" fill="#001689"/>
  <path id="white1" d="M-883.866,968.866h-9.5c.076,5.776,3.449,9.784,9.229,11.367h.269Z" transform="translate(922.912 -945.989)" fill="#fff"/>
  <path id="white2" d="M-887.826,884.418c0,2.676.6,4.315,2.221,5.782a11.343,11.343,0,0,0,5.964,2.382V874.617h-.092c-4.989,1.486-8.094,5.06-8.094,9.8" transform="translate(918.686 -873.861)" fill="#fff"/>
  <path id="eye" d="M-840.063,955.431c0,2.456-2.931,4.444-6.545,4.444s-6.548-1.988-6.548-4.444,2.931-4.444,6.548-4.444,6.545,1.988,6.545,4.444" transform="translate(891.99 -932.287)" fill="#ff4438"/>
  <path id="eyeball" d="M-831,961.789a2.466,2.466,0,0,1-2.467,2.467,2.468,2.468,0,0,1-2.469-2.467,2.47,2.47,0,0,1,2.469-2.47,2.469,2.469,0,0,1,2.467,2.47" transform="translate(878.836 -938.639)" fill="#fff"/>
  <g id="mindsoft" transform="translate(67.144 3.096)">
    <path id="m-2" data-name="m" d="M-718.363,917.083a7.941,7.941,0,0,1,6.27-2.975c2.664,0,4.35,1.1,4.859,3.17,2.037-2.309,3.763-3.17,6.467-3.17,3.486,0,5.838,2.152,5.838,5.365a19.866,19.866,0,0,1-.47,3.8l-2.2,10.31h-7.249l2.157-10.033a8.962,8.962,0,0,0,.275-1.96,1.825,1.825,0,0,0-2.037-1.841c-1.648,0-2.471,1.018-3.058,3.8l-2.118,10.033h-7.249l2.157-10.19a8.551,8.551,0,0,0,.275-1.884,1.794,1.794,0,0,0-1.962-1.879c-1.645,0-2.507,1.057-3.056,3.644l-2.194,10.31h-7.251l4.037-18.932h7.015Z" transform="translate(728.906 -907.299)" fill="#ff4438"/>
    <path id="i" d="M-573.658,911.907h-7.252l4.037-18.782h7.21Zm4.544-21.192h-7.249l1.019-4.744h7.21Z" transform="translate(615.97 -885.622)" fill="#ff4438"/>
    <path id="n" d="M-523.245,917.083a7.786,7.786,0,0,1,6.271-2.975c3.45,0,5.8,2.037,5.8,5.055a14.636,14.636,0,0,1-.353,2.979l-2.432,11.443h-7.247l2.273-10.7a4.972,4.972,0,0,0,.117-1.177c0-1.253-.745-1.956-2.157-1.956-1.8,0-2.861,1.133-3.37,3.524l-2.194,10.31h-7.252l4.037-18.932h7.015Z" transform="translate(580.012 -907.299)" fill="#ff4438"/>
    <path id="d" d="M-411.21,911.911h-7.055l.472-2.138a5.729,5.729,0,0,1-5.173,2.641c-4.429,0-6.976-2.875-6.976-7.933,0-6.958,3.92-11.9,9.483-11.9a5.919,5.919,0,0,1,5.525,2.838l2.037-9.452h7.213Zm-11.443-7.858c0,2.022.9,3.075,2.663,3.075,2.2,0,3.8-2.567,3.8-6.107,0-1.827-.979-2.88-2.665-2.88-2.274,0-3.8,2.373-3.8,5.912" transform="translate(500.767 -885.622)" fill="#ff4438"/>
    <path id="s-2" data-name="s" d="M-322.129,920.3l.04-.392c0-1.057-.9-1.688-2.429-1.688s-2.431.588-2.431,1.606c0,.942.629,1.3,2.9,1.65,3.761.626,4.548.9,5.683,1.8a4.9,4.9,0,0,1,1.605,3.8c0,4.428-3.643,7.13-9.641,7.13-2.9,0-5.014-.469-6.465-1.411a5.579,5.579,0,0,1-2.664-4.739,4.594,4.594,0,0,1,.04-.672h6.387c-.038,1.843.9,2.628,2.98,2.628,1.684,0,2.781-.741,2.781-1.879,0-1.019-.587-1.373-3.215-1.841-3.6-.669-4.348-.9-5.327-1.568a4.537,4.537,0,0,1-1.883-3.878c0-4.117,3.528-6.585,9.406-6.585a13.571,13.571,0,0,1,6.074,1.133,4.7,4.7,0,0,1,2.586,4.117c0,.158-.039.43-.078.784Z" transform="translate(428.722 -907.423)" fill="#001689"/>
    <path id="o" d="M-224.889,922.534a12.654,12.654,0,0,1-3.371,8.7c-1.881,1.958-4.508,2.9-7.879,2.9-3.329,0-5.682-.741-7.249-2.31a8.369,8.369,0,0,1-2.351-6.154,11.466,11.466,0,0,1,4.9-9.834,11.66,11.66,0,0,1,6.466-1.724c5.918,0,9.485,3.17,9.485,8.426m-13.718,3.448c0,2,.94,3.094,2.628,3.094a2.782,2.782,0,0,0,1.958-.822,9.416,9.416,0,0,0,1.958-6.035c0-1.961-.94-3.094-2.585-3.094-2.2,0-3.96,3.055-3.96,6.857" transform="translate(360.202 -907.299)" fill="#001689"/>
    <path id="f" d="M-135.362,889.356a14.277,14.277,0,0,0-1.567-.076c-2.039,0-2.392.271-2.862,2.178l-.115.541h3.839l-.94,4.318h-3.646l-3.094,14.467H-151l3.1-14.467h-2.977l.9-4.318h3.017c.979-3.848,1.332-4.7,2.585-5.833,1.374-1.2,3.137-1.668,6.623-1.668a28.729,28.729,0,0,1,3.411.195Z" transform="translate(287.907 -884.497)" fill="#001689"/>
    <path id="t" d="M-73.939,902.069h-3.839l-1.335,6.225a13.263,13.263,0,0,0-.313,1.862c0,.934.471,1.28,1.805,1.28.547,0,1.1,0,2.194-.076l-1.1,5.094a22.752,22.752,0,0,1-4.233.308c-2.194,0-3.371-.232-4.429-.892a3.946,3.946,0,0,1-1.879-3.462c0-.775,0-.775.626-3.69l1.409-6.649h-3.133l.94-4.392h3.135l1.255-5.753h7.211l-1.215,5.753H-73Z" transform="translate(239.957 -890.164)" fill="#001689"/>
  </g>
</svg>
